Hanif_Medium_5_0_grf.mot
version=1
nRows=53
nColumns=19
inDegrees=yes
endheader
time	right_ground_force_vx	right_ground_force_vy	right_ground_force_vz	right_ground_force_px	right_ground_force_py	right_ground_force_pz	right_ground_torque_x	right_ground_torque_y	right_ground_torque_z	left_ground_force_vx	left_ground_force_vy	left_ground_force_vz	left_ground_force_px	left_ground_force_py	left_ground_force_pz	left_ground_torque_x	left_ground_torque_y	left_ground_torque_z
6.350000	-2.181440	289.732000	20.998800	0.201131	0.000000	-1.441010	-18.856200	3.407550	0.586699	2.391550	282.562000	-17.900100	0.232391	0.000000	-0.986203	23.453200	-6.323350	9.577240
6.355000	-2.114510	289.942000	20.839600	0.201256	0.000000	-1.441060	-18.854500	3.482490	0.626344	2.349100	282.296000	-17.953300	0.232704	0.000000	-0.985943	23.358700	-6.309910	9.658420
6.360000	-1.457410	291.490000	20.997100	0.200968	0.000000	-1.440740	-19.041700	3.488280	0.541736	2.539450	280.648000	-18.087500	0.232924	0.000000	-0.987348	23.611500	-6.305170	9.670890
6.365000	-0.765733	290.341000	20.962100	0.201062	0.000000	-1.441120	-18.846400	3.582160	0.572260	2.599890	281.545000	-17.581400	0.232879	0.000000	-0.987153	23.631800	-6.256560	9.669910
6.370000	-0.212699	291.399000	21.319900	0.200965	0.000000	-1.440740	-19.019800	3.718340	0.555770	2.400470	282.645000	-17.784300	0.233189	0.000000	-0.987030	23.693800	-6.320200	9.802770
6.375000	0.034635	293.735000	21.638000	0.200837	0.000000	-1.440560	-19.222300	3.815860	0.528153	1.897360	282.378000	-17.726100	0.233136	0.000000	-0.986914	23.650400	-6.289090	9.778500
6.380000	0.498194	294.585000	21.137100	0.201148	0.000000	-1.440290	-19.350400	3.834380	0.612738	2.494680	283.691000	-17.509400	0.233183	0.000000	-0.986723	23.692300	-6.345590	9.828250
6.385000	0.903953	295.322000	21.675300	0.200937	0.000000	-1.440360	-19.372300	3.914620	0.561249	2.069240	281.455000	-17.200600	0.233739	0.000000	-0.987635	23.771900	-6.260160	9.903350
6.390000	0.536943	295.266000	21.660600	0.201339	0.000000	-1.440830	-19.236000	3.950350	0.684700	2.341660	283.299000	-17.701300	0.233865	0.000000	-0.986948	23.727000	-6.312130	10.013600
6.395000	0.543162	296.389000	21.519800	0.201719	0.000000	-1.440970	-19.266800	3.860620	0.789839	1.670520	282.351000	-17.693100	0.234213	0.000000	-0.987352	23.776600	-6.326480	10.085700
6.400000	0.226692	296.396000	21.717500	0.202150	0.000000	-1.440500	-19.411000	3.935020	0.927987	1.761010	285.162000	-17.879400	0.234091	0.000000	-0.986724	23.832700	-6.369730	10.149700
6.405000	-0.121623	296.781000	21.432800	0.202112	0.000000	-1.440790	-19.354700	3.843380	0.908089	1.948330	284.965000	-17.790100	0.234697	0.000000	-0.986958	23.878500	-6.348720	10.312000
6.410000	-0.087397	295.481000	20.714200	0.202322	0.000000	-1.440100	-19.474100	3.883190	0.962106	2.344220	285.386000	-18.113900	0.234858	0.000000	-0.987620	24.093800	-6.333020	10.377500
6.415000	0.065688	297.300000	21.620400	0.202066	0.000000	-1.439570	-19.747600	3.946430	0.904048	2.386020	288.000000	-18.223400	0.234966	0.000000	-0.987472	24.271200	-6.399530	10.502600
6.420000	0.527306	300.915000	21.520400	0.202732	0.000000	-1.440710	-19.639400	3.985230	1.108890	2.534670	289.696000	-18.344300	0.234491	0.000000	-0.987034	24.284200	-6.438550	10.426100
6.425000	1.230940	303.504000	21.656200	0.202732	0.000000	-1.439480	-20.170900	4.129510	1.122080	3.041970	290.803000	-18.252000	0.235190	0.000000	-0.987607	24.531800	-6.521390	10.666700
6.430000	2.011590	307.883000	21.890600	0.203448	0.000000	-1.439390	-20.481700	4.182120	1.354690	3.346800	294.854000	-18.467800	0.236163	0.000000	-0.987219	24.753500	-6.553220	11.097400
6.435000	2.440820	310.671000	22.538600	0.203498	0.000000	-1.438870	-20.823400	4.294540	1.392210	3.397310	296.183000	-18.677500	0.236290	0.000000	-0.987832	25.045900	-6.576300	11.187800
6.440000	2.683820	313.709000	22.221200	0.203884	0.000000	-1.438580	-21.114600	4.436360	1.526060	2.970730	298.601000	-18.758900	0.236377	0.000000	-0.988558	25.478100	-6.556820	11.300900
6.445000	2.535240	314.987000	22.316100	0.204637	0.000000	-1.437660	-21.491600	4.318530	1.761730	3.176690	300.321000	-19.149400	0.236613	0.000000	-0.988684	25.658600	-6.582700	11.442700
6.450000	2.307690	317.025000	22.969100	0.204907	0.000000	-1.437280	-21.754100	4.334960	1.866520	3.232800	302.141000	-19.423500	0.236423	0.000000	-0.988225	25.674400	-6.624500	11.458500
6.455000	2.270790	322.481000	23.128800	0.205326	0.000000	-1.438120	-21.858800	4.341450	2.026650	3.631160	304.095000	-19.521300	0.237209	0.000000	-0.988230	25.833800	-6.635810	11.767700
6.460000	2.253880	325.124000	23.901100	0.205629	0.000000	-1.437320	-22.298000	4.360930	2.149340	4.175530	306.569000	-19.853200	0.237744	0.000000	-0.988661	26.164900	-6.661570	12.028000
6.465000	2.231110	330.289000	24.311400	0.205926	0.000000	-1.437780	-22.503700	4.377280	2.278780	3.447750	307.416000	-19.909900	0.237806	0.000000	-0.988192	26.109700	-6.645710	12.082200
6.470000	1.809080	336.171000	24.864200	0.206524	0.000000	-1.437460	-23.018200	4.408760	2.522000	3.596570	309.747000	-20.018600	0.238350	0.000000	-0.988604	26.431900	-6.744060	12.344500
6.475000	2.678510	338.958000	25.688500	0.207174	0.000000	-1.436550	-23.505600	4.520120	2.774000	3.865750	312.511000	-20.590300	0.238438	0.000000	-0.988899	26.755900	-6.693970	12.483700
6.480000	3.780550	344.078000	26.312000	0.207382	0.000000	-1.436420	-23.891300	4.601880	2.886490	3.707260	316.592000	-20.951600	0.238914	0.000000	-0.988415	26.957100	-6.712860	12.797100
6.485000	4.710700	349.432000	27.048000	0.208102	0.000000	-1.436150	-24.342400	4.835670	3.196930	3.617680	319.537000	-21.074900	0.239263	0.000000	-0.988376	27.198900	-6.715390	13.023000
6.490000	5.112640	353.621000	27.063400	0.207823	0.000000	-1.435870	-24.730000	4.971670	3.135580	3.302600	324.300000	-21.513700	0.239489	0.000000	-0.988749	27.734600	-6.696050	13.287900
6.495000	5.996880	358.115000	28.090200	0.208572	0.000000	-1.435490	-25.170100	4.977940	3.445910	3.047540	326.875000	-22.438400	0.239797	0.000000	-0.988708	27.948100	-6.640960	13.507900
6.500000	6.516960	363.361000	29.417200	0.209440	0.000000	-1.435010	-25.706400	5.083940	3.826560	3.423650	330.673000	-23.344000	0.239722	0.000000	-0.989258	28.446900	-6.751480	13.656200
6.505000	6.815970	368.378000	30.374600	0.210091	0.000000	-1.435440	-25.900700	5.162780	4.128560	3.206020	332.906000	-24.168200	0.241036	0.000000	-0.990492	29.055300	-6.684670	14.198100
6.510000	6.337610	376.090000	31.134200	0.210736	0.000000	-1.435240	-26.528300	5.115350	4.451690	3.178120	337.911000	-25.830600	0.240714	0.000000	-0.989825	29.269300	-6.657750	14.325800
6.515000	6.179580	378.363000	31.251100	0.211601	0.000000	-1.434490	-26.976800	5.018730	4.797530	3.554440	339.600000	-27.078700	0.241226	0.000000	-0.990167	29.524700	-6.582760	14.589500
6.520000	5.565880	383.096000	31.737300	0.211967	0.000000	-1.433270	-27.790300	4.935040	4.991180	3.444830	342.208000	-27.316800	0.241691	0.000000	-0.990088	29.727900	-6.543130	14.856200
6.525000	5.312420	387.571000	32.154500	0.212838	0.000000	-1.432840	-28.288200	4.865720	5.381200	4.122260	346.482000	-28.128700	0.241873	0.000000	-0.990069	30.080200	-6.551270	15.106500
6.530000	4.563590	391.939000	32.391100	0.213562	0.000000	-1.432290	-28.831600	4.829690	5.723140	3.691280	348.288000	-29.354800	0.241758	0.000000	-0.990474	30.387100	-6.550460	15.172100
6.535000	4.005370	395.013000	32.297300	0.214875	0.000000	-1.432270	-29.075000	4.636080	6.270050	3.483480	352.616000	-29.998400	0.242504	0.000000	-0.990875	30.912900	-6.453160	15.618900
6.540000	3.025380	395.620000	32.121900	0.216047	0.000000	-1.431070	-29.606500	4.376790	6.727330	3.433540	355.409000	-29.821800	0.243434	0.000000	-0.990685	31.092600	-6.411820	16.058100
6.545000	2.036620	400.170000	32.113100	0.216749	0.000000	-1.430880	-30.035500	4.269080	7.075820	3.014750	359.118000	-31.344900	0.243645	0.000000	-0.990895	31.502700	-6.294000	16.319400
6.550000	0.984591	399.930000	32.054100	0.217681	0.000000	-1.430040	-30.368100	4.064790	7.436400	2.459570	361.514000	-31.424300	0.244823	0.000000	-0.991263	31.857700	-6.235910	16.849600
6.555000	1.017110	401.173000	31.914300	0.218843	0.000000	-1.429800	-30.557100	3.907630	7.911640	1.806820	365.467000	-32.392100	0.244517	0.000000	-0.990970	32.113600	-6.085840	16.922800
6.560000	0.058842	403.533000	32.001900	0.219820	0.000000	-1.428790	-31.155700	3.713620	8.342580	1.626860	365.600000	-32.776700	0.246421	0.000000	-0.991831	32.444000	-5.951290	17.628500
6.565000	-0.798407	403.843000	31.429300	0.220360	0.000000	-1.427860	-31.565300	3.646280	8.560660	0.940452	368.894000	-33.165200	0.246617	0.000000	-0.991523	32.637000	-5.827390	17.852100
6.570000	-1.743460	404.984000	31.129900	0.221307	0.000000	-1.428000	-31.607800	3.401070	8.951920	0.277401	369.662000	-33.841000	0.247376	0.000000	-0.991984	32.888600	-5.613680	18.171400
6.575000	-1.908460	405.023000	31.244900	0.222292	0.000000	-1.427210	-31.932100	3.293210	9.348170	-0.461057	371.562000	-33.802300	0.247607	0.000000	-0.991494	32.890000	-5.536530	18.342900
6.580000	-2.880540	407.032000	31.489600	0.223145	0.000000	-1.426990	-32.188100	3.074370	9.732690	-1.018400	373.918000	-34.009800	0.247851	0.000000	-0.991247	33.016400	-5.386540	18.538400
6.585000	-4.051350	406.633000	31.196500	0.223914	0.000000	-1.426930	-32.189600	2.728700	10.015300	-1.258520	374.066000	-34.560200	0.248750	0.000000	-0.992521	33.510300	-5.227610	18.884900
6.590000	-4.903060	406.442000	31.162200	0.225072	0.000000	-1.426370	-32.410100	2.496450	10.471500	-1.387330	375.226000	-34.461600	0.249100	0.000000	-0.991878	33.374700	-5.082860	19.057200
6.595000	-6.319270	406.257000	31.644400	0.225955	0.000000	-1.425360	-32.818600	2.318000	10.828600	-2.107740	373.482000	-34.844600	0.249527	0.000000	-0.992994	33.650500	-5.044930	19.146700
6.600000	-7.158940	406.272000	31.638800	0.226500	0.000000	-1.425340	-32.831400	2.136720	11.042900	-2.712900	374.988000	-35.514100	0.250039	0.000000	-0.993039	33.813600	-4.887390	19.418400
6.605000	-7.190360	405.299000	32.021100	0.227598	0.000000	-1.424660	-33.029100	1.950010	11.455700	-2.625200	375.201000	-35.420900	0.250578	0.000000	-0.993272	33.917900	-4.794830	19.620900
6.610000	-8.127450	404.956000	31.613800	0.228508	0.000000	-1.424130	-33.221100	1.819300	11.809000	-2.772270	375.596000	-36.214700	0.250974	0.000000	-0.993349	33.984700	-4.668040	19.798000
